%TF.GenerationSoftware,KiCad,Pcbnew,10.0.6*%
%TF.CreationDate,2026-09-29T16:42:07-07:00*%
%TF.ProjectId,keyclock,6b657963-6c6f-4636-9b2e-6b696361645f,rev?*%
%TF.SameCoordinates,Original*%
%TF.FileFunction,Soldermask,Bot*%
%TF.FilePolarity,Negative*%
%FSLAX46Y46*%
G04 Gerber Fmt 4.6, Leading zero omitted, Abs format (unit mm)*
G04 Created by KiCad (PCBNEW 10.0.6) date 2026-09-29 16:42:07*
%MOMM*%
%LPD*%
G01*
G04 APERTURE LIST*
G04 Aperture macros list*
%AMRoundRect*
0 Rectangle with rounded corners*
0 $1 Rounding radius*
0 $2 $3 $4 $5 $6 $7 $8 $9 X,Y pos of 4 corners*
0 Add a 4 corners polygon primitive as box body*
4,1,4,$2,$3,$4,$5,$6,$7,$8,$9,$2,$3,0*
0 Add four circle primitives for the rounded corners*
1,1,$1+$1,$2,$3*
1,1,$1+$1,$4,$5*
1,1,$1+$1,$6,$7*
1,1,$1+$1,$8,$9*
0 Add four rect primitives between the rounded corners*
20,1,$1+$1,$2,$3,$4,$5,0*
20,1,$1+$1,$4,$5,$6,$7,0*
20,1,$1+$1,$6,$7,$8,$9,0*
20,1,$1+$1,$8,$9,$2,$3,0*%
G04 Aperture macros list end*
%ADD10C,1.700000*%
%ADD11C,4.000000*%
%ADD12C,2.200000*%
%ADD13C,3.200000*%
%ADD14R,1.700000X1.700000*%
%ADD15R,2.000000X2.000000*%
%ADD16C,2.000000*%
%ADD17C,1.524000*%
%ADD18RoundRect,0.152400X-1.063600X-0.609600X1.063600X-0.609600X1.063600X0.609600X-1.063600X0.609600X0*%
%ADD19RoundRect,0.152400X1.063600X0.609600X-1.063600X0.609600X-1.063600X-0.609600X1.063600X-0.609600X0*%
G04 APERTURE END LIST*
D10*
%TO.C,SW1*%
X109420000Y-138000000D03*
D11*
X114500000Y-138000000D03*
D10*
X119580000Y-138000000D03*
D12*
X117040000Y-132920000D03*
X110690000Y-135460000D03*
%TD*%
D13*
%TO.C,H2*%
X186000000Y-110000000D03*
%TD*%
D10*
%TO.C,SW4*%
X167920000Y-138000000D03*
D11*
X173000000Y-138000000D03*
D10*
X178080000Y-138000000D03*
D12*
X175540000Y-132920000D03*
X169190000Y-135460000D03*
%TD*%
D10*
%TO.C,SW3*%
X148420000Y-138000000D03*
D11*
X153500000Y-138000000D03*
D10*
X158580000Y-138000000D03*
D12*
X156040000Y-132920000D03*
X149690000Y-135460000D03*
%TD*%
D10*
%TO.C,SW2*%
X128920000Y-138000000D03*
D11*
X134000000Y-138000000D03*
D10*
X139080000Y-138000000D03*
D12*
X136540000Y-132920000D03*
X130190000Y-135460000D03*
%TD*%
D13*
%TO.C,H1*%
X102000000Y-110000000D03*
%TD*%
%TO.C,H4*%
X185500000Y-149500000D03*
%TD*%
%TO.C,H3*%
X102000000Y-149500000D03*
%TD*%
D14*
%TO.C,J1*%
X124000000Y-123000000D03*
D10*
X121460000Y-123000000D03*
X118920000Y-123000000D03*
X116380000Y-123000000D03*
X113840000Y-123000000D03*
X111300000Y-123000000D03*
X108760000Y-123000000D03*
X106220000Y-123000000D03*
%TD*%
D15*
%TO.C,BZ1*%
X177500000Y-118000000D03*
D16*
X177500000Y-125600000D03*
%TD*%
D17*
%TO.C,U1*%
X151665000Y-108420000D03*
D18*
X152500000Y-108420000D03*
D17*
X151665000Y-110960000D03*
D18*
X152500000Y-110960000D03*
D17*
X151665000Y-113500000D03*
D18*
X152500000Y-113500000D03*
D17*
X151665000Y-116040000D03*
D18*
X152500000Y-116040000D03*
D17*
X151665000Y-118580000D03*
D18*
X152500000Y-118580000D03*
D17*
X151665000Y-121120000D03*
D18*
X152500000Y-121120000D03*
D17*
X151665000Y-123660000D03*
D18*
X152500000Y-123660000D03*
D19*
X135590000Y-123660000D03*
D17*
X136425000Y-123660000D03*
D19*
X135590000Y-121120000D03*
D17*
X136425000Y-121120000D03*
D19*
X135590000Y-118580000D03*
D17*
X136425000Y-118580000D03*
D19*
X135590000Y-116040000D03*
D17*
X136425000Y-116040000D03*
D19*
X135590000Y-113500000D03*
D17*
X136425000Y-113500000D03*
D19*
X135590000Y-110960000D03*
D17*
X136425000Y-110960000D03*
D19*
X135590000Y-108420000D03*
D17*
X136425000Y-108420000D03*
%TD*%
M02*
