%TF.GenerationSoftware,KiCad,Pcbnew,10.0.6*%
%TF.CreationDate,2026-09-29T16:42:07-07:00*%
%TF.ProjectId,keyclock,6b657963-6c6f-4636-9b2e-6b696361645f,rev?*%
%TF.SameCoordinates,Original*%
%TF.FileFunction,Legend,Bot*%
%TF.FilePolarity,Positive*%
%FSLAX46Y46*%
G04 Gerber Fmt 4.6, Leading zero omitted, Abs format (unit mm)*
G04 Created by KiCad (PCBNEW 10.0.6) date 2026-09-29 16:42:07*
%MOMM*%
%LPD*%
G01*
G04 APERTURE LIST*
G04 Aperture macros list*
%AMRoundRect*
0 Rectangle with rounded corners*
0 $1 Rounding radius*
0 $2 $3 $4 $5 $6 $7 $8 $9 X,Y pos of 4 corners*
0 Add a 4 corners polygon primitive as box body*
4,1,4,$2,$3,$4,$5,$6,$7,$8,$9,$2,$3,0*
0 Add four circle primitives for the rounded corners*
1,1,$1+$1,$2,$3*
1,1,$1+$1,$4,$5*
1,1,$1+$1,$6,$7*
1,1,$1+$1,$8,$9*
0 Add four rect primitives between the rounded corners*
20,1,$1+$1,$2,$3,$4,$5,0*
20,1,$1+$1,$4,$5,$6,$7,0*
20,1,$1+$1,$6,$7,$8,$9,0*
20,1,$1+$1,$8,$9,$2,$3,0*%
G04 Aperture macros list end*
%ADD10C,0.150000*%
%ADD11C,0.101600*%
%ADD12C,0.120000*%
%ADD13C,0.127000*%
%ADD14C,0.100000*%
%ADD15C,0.504000*%
%ADD16C,1.700000*%
%ADD17C,4.000000*%
%ADD18C,2.200000*%
%ADD19C,3.200000*%
%ADD20R,1.700000X1.700000*%
%ADD21R,2.000000X2.000000*%
%ADD22C,2.000000*%
%ADD23C,1.524000*%
%ADD24RoundRect,0.152400X-1.063600X-0.609600X1.063600X-0.609600X1.063600X0.609600X-1.063600X0.609600X0*%
%ADD25RoundRect,0.152400X1.063600X0.609600X-1.063600X0.609600X-1.063600X-0.609600X1.063600X-0.609600X0*%
G04 APERTURE END LIST*
D10*
X126224819Y-122666666D02*
X126939104Y-122666666D01*
X126939104Y-122666666D02*
X127081961Y-122619047D01*
X127081961Y-122619047D02*
X127177200Y-122523809D01*
X127177200Y-122523809D02*
X127224819Y-122380952D01*
X127224819Y-122380952D02*
X127224819Y-122285714D01*
X127224819Y-123666666D02*
X127224819Y-123095238D01*
X127224819Y-123380952D02*
X126224819Y-123380952D01*
X126224819Y-123380952D02*
X126367676Y-123285714D01*
X126367676Y-123285714D02*
X126462914Y-123190476D01*
X126462914Y-123190476D02*
X126510533Y-123095238D01*
X170231009Y-120919047D02*
X170278628Y-121061904D01*
X170278628Y-121061904D02*
X170326247Y-121109523D01*
X170326247Y-121109523D02*
X170421485Y-121157142D01*
X170421485Y-121157142D02*
X170564342Y-121157142D01*
X170564342Y-121157142D02*
X170659580Y-121109523D01*
X170659580Y-121109523D02*
X170707200Y-121061904D01*
X170707200Y-121061904D02*
X170754819Y-120966666D01*
X170754819Y-120966666D02*
X170754819Y-120585714D01*
X170754819Y-120585714D02*
X169754819Y-120585714D01*
X169754819Y-120585714D02*
X169754819Y-120919047D01*
X169754819Y-120919047D02*
X169802438Y-121014285D01*
X169802438Y-121014285D02*
X169850057Y-121061904D01*
X169850057Y-121061904D02*
X169945295Y-121109523D01*
X169945295Y-121109523D02*
X170040533Y-121109523D01*
X170040533Y-121109523D02*
X170135771Y-121061904D01*
X170135771Y-121061904D02*
X170183390Y-121014285D01*
X170183390Y-121014285D02*
X170231009Y-120919047D01*
X170231009Y-120919047D02*
X170231009Y-120585714D01*
X169754819Y-121490476D02*
X169754819Y-122157142D01*
X169754819Y-122157142D02*
X170754819Y-121490476D01*
X170754819Y-121490476D02*
X170754819Y-122157142D01*
X170754819Y-123061904D02*
X170754819Y-122490476D01*
X170754819Y-122776190D02*
X169754819Y-122776190D01*
X169754819Y-122776190D02*
X169897676Y-122680952D01*
X169897676Y-122680952D02*
X169992914Y-122585714D01*
X169992914Y-122585714D02*
X170040533Y-122490476D01*
X175033866Y-117609048D02*
X175033866Y-118370953D01*
X175414819Y-117990000D02*
X174652914Y-117990000D01*
D11*
X154666520Y-116798809D02*
X154152473Y-116798809D01*
X154152473Y-116798809D02*
X154091997Y-116768571D01*
X154091997Y-116768571D02*
X154061759Y-116738333D01*
X154061759Y-116738333D02*
X154031520Y-116677857D01*
X154031520Y-116677857D02*
X154031520Y-116556904D01*
X154031520Y-116556904D02*
X154061759Y-116496428D01*
X154061759Y-116496428D02*
X154091997Y-116466190D01*
X154091997Y-116466190D02*
X154152473Y-116435952D01*
X154152473Y-116435952D02*
X154666520Y-116435952D01*
X154031520Y-115800952D02*
X154031520Y-116163809D01*
X154031520Y-115982381D02*
X154666520Y-115982381D01*
X154666520Y-115982381D02*
X154575806Y-116042857D01*
X154575806Y-116042857D02*
X154515330Y-116103333D01*
X154515330Y-116103333D02*
X154485092Y-116163809D01*
%TO.C,J1*%
D12*
X104890000Y-124330000D02*
X104890000Y-121670000D01*
X122730000Y-121670000D02*
X104890000Y-121670000D01*
X122730000Y-124330000D02*
X104890000Y-124330000D01*
X122730000Y-124330000D02*
X122730000Y-121670000D01*
X125330000Y-121670000D02*
X124000000Y-121670000D01*
X125330000Y-123000000D02*
X125330000Y-121670000D01*
%TO.C,BZ1*%
X183600000Y-121800000D02*
G75*
G02*
X171400000Y-121800000I-6100000J0D01*
G01*
X171400000Y-121800000D02*
G75*
G02*
X183600000Y-121800000I6100000J0D01*
G01*
%TO.C,U1*%
D13*
X135155000Y-124549000D02*
X135155000Y-107404000D01*
D14*
X137060000Y-105499000D02*
X151030000Y-105499000D01*
D13*
X137060000Y-105499000D02*
X151030000Y-105499000D01*
X139541000Y-104489000D02*
X139541000Y-105499000D01*
X148036272Y-103989000D02*
X140041000Y-103989000D01*
X148540000Y-105499000D02*
X148536272Y-104488728D01*
X151030000Y-126454000D02*
X137060000Y-126454000D01*
X152935000Y-124549000D02*
X152935000Y-107404000D01*
X135155000Y-107404000D02*
G75*
G02*
X137060000Y-105499000I1905000J0D01*
G01*
X137060000Y-126454000D02*
G75*
G02*
X135155000Y-124549000I1J1905001D01*
G01*
X139541000Y-104489000D02*
G75*
G02*
X140041000Y-103989000I500000J0D01*
G01*
X148036272Y-103989000D02*
G75*
G02*
X148536300Y-104488728I28J-500000D01*
G01*
X151030000Y-105499000D02*
G75*
G02*
X152935000Y-107404000I0J-1905000D01*
G01*
X152935000Y-124549000D02*
G75*
G02*
X151030000Y-126454000I-1905001J1D01*
G01*
D15*
X152154000Y-106670000D02*
G75*
G02*
X151650000Y-106670000I-252000J0D01*
G01*
X151650000Y-106670000D02*
G75*
G02*
X152154000Y-106670000I252000J0D01*
G01*
X153297000Y-105790000D02*
G75*
G02*
X152793000Y-105790000I-252000J0D01*
G01*
X152793000Y-105790000D02*
G75*
G02*
X153297000Y-105790000I252000J0D01*
G01*
%TD*%
%LPC*%
D16*
%TO.C,SW1*%
X109420000Y-138000000D03*
D17*
X114500000Y-138000000D03*
D16*
X119580000Y-138000000D03*
D18*
X117040000Y-132920000D03*
X110690000Y-135460000D03*
%TD*%
D19*
%TO.C,H2*%
X186000000Y-110000000D03*
%TD*%
D16*
%TO.C,SW4*%
X167920000Y-138000000D03*
D17*
X173000000Y-138000000D03*
D16*
X178080000Y-138000000D03*
D18*
X175540000Y-132920000D03*
X169190000Y-135460000D03*
%TD*%
D16*
%TO.C,SW3*%
X148420000Y-138000000D03*
D17*
X153500000Y-138000000D03*
D16*
X158580000Y-138000000D03*
D18*
X156040000Y-132920000D03*
X149690000Y-135460000D03*
%TD*%
D16*
%TO.C,SW2*%
X128920000Y-138000000D03*
D17*
X134000000Y-138000000D03*
D16*
X139080000Y-138000000D03*
D18*
X136540000Y-132920000D03*
X130190000Y-135460000D03*
%TD*%
D19*
%TO.C,H1*%
X102000000Y-110000000D03*
%TD*%
%TO.C,H4*%
X185500000Y-149500000D03*
%TD*%
%TO.C,H3*%
X102000000Y-149500000D03*
%TD*%
D20*
%TO.C,J1*%
X124000000Y-123000000D03*
D16*
X121460000Y-123000000D03*
X118920000Y-123000000D03*
X116380000Y-123000000D03*
X113840000Y-123000000D03*
X111300000Y-123000000D03*
X108760000Y-123000000D03*
X106220000Y-123000000D03*
%TD*%
D21*
%TO.C,BZ1*%
X177500000Y-118000000D03*
D22*
X177500000Y-125600000D03*
%TD*%
D23*
%TO.C,U1*%
X151665000Y-108420000D03*
D24*
X152500000Y-108420000D03*
D23*
X151665000Y-110960000D03*
D24*
X152500000Y-110960000D03*
D23*
X151665000Y-113500000D03*
D24*
X152500000Y-113500000D03*
D23*
X151665000Y-116040000D03*
D24*
X152500000Y-116040000D03*
D23*
X151665000Y-118580000D03*
D24*
X152500000Y-118580000D03*
D23*
X151665000Y-121120000D03*
D24*
X152500000Y-121120000D03*
D23*
X151665000Y-123660000D03*
D24*
X152500000Y-123660000D03*
D25*
X135590000Y-123660000D03*
D23*
X136425000Y-123660000D03*
D25*
X135590000Y-121120000D03*
D23*
X136425000Y-121120000D03*
D25*
X135590000Y-118580000D03*
D23*
X136425000Y-118580000D03*
D25*
X135590000Y-116040000D03*
D23*
X136425000Y-116040000D03*
D25*
X135590000Y-113500000D03*
D23*
X136425000Y-113500000D03*
D25*
X135590000Y-110960000D03*
D23*
X136425000Y-110960000D03*
D25*
X135590000Y-108420000D03*
D23*
X136425000Y-108420000D03*
%TD*%
%LPD*%
M02*
