%TF.GenerationSoftware,KiCad,Pcbnew,10.0.6*%
%TF.CreationDate,2026-09-29T16:42:07-07:00*%
%TF.ProjectId,keyclock,6b657963-6c6f-4636-9b2e-6b696361645f,rev?*%
%TF.SameCoordinates,Original*%
%TF.FileFunction,Copper,L2,Bot*%
%TF.FilePolarity,Positive*%
%FSLAX46Y46*%
G04 Gerber Fmt 4.6, Leading zero omitted, Abs format (unit mm)*
G04 Created by KiCad (PCBNEW 10.0.6) date 2026-09-29 16:42:07*
%MOMM*%
%LPD*%
G01*
G04 APERTURE LIST*
G04 Aperture macros list*
%AMRoundRect*
0 Rectangle with rounded corners*
0 $1 Rounding radius*
0 $2 $3 $4 $5 $6 $7 $8 $9 X,Y pos of 4 corners*
0 Add a 4 corners polygon primitive as box body*
4,1,4,$2,$3,$4,$5,$6,$7,$8,$9,$2,$3,0*
0 Add four circle primitives for the rounded corners*
1,1,$1+$1,$2,$3*
1,1,$1+$1,$4,$5*
1,1,$1+$1,$6,$7*
1,1,$1+$1,$8,$9*
0 Add four rect primitives between the rounded corners*
20,1,$1+$1,$2,$3,$4,$5,0*
20,1,$1+$1,$4,$5,$6,$7,0*
20,1,$1+$1,$6,$7,$8,$9,0*
20,1,$1+$1,$8,$9,$2,$3,0*%
G04 Aperture macros list end*
%TA.AperFunction,ComponentPad*%
%ADD10C,2.200000*%
%TD*%
%TA.AperFunction,ComponentPad*%
%ADD11R,1.700000X1.700000*%
%TD*%
%TA.AperFunction,ComponentPad*%
%ADD12C,1.700000*%
%TD*%
%TA.AperFunction,ComponentPad*%
%ADD13R,2.000000X2.000000*%
%TD*%
%TA.AperFunction,ComponentPad*%
%ADD14C,2.000000*%
%TD*%
%TA.AperFunction,ComponentPad*%
%ADD15C,1.524000*%
%TD*%
%TA.AperFunction,SMDPad,CuDef*%
%ADD16RoundRect,0.152400X-1.063600X-0.609600X1.063600X-0.609600X1.063600X0.609600X-1.063600X0.609600X0*%
%TD*%
%TA.AperFunction,SMDPad,CuDef*%
%ADD17RoundRect,0.152400X1.063600X0.609600X-1.063600X0.609600X-1.063600X-0.609600X1.063600X-0.609600X0*%
%TD*%
%TA.AperFunction,ViaPad*%
%ADD18C,0.600000*%
%TD*%
%TA.AperFunction,Conductor*%
%ADD19C,0.200000*%
%TD*%
G04 APERTURE END LIST*
D10*
%TO.P,SW1,1,1_1*%
%TO.N,GND*%
X117040000Y-132920000D03*
%TO.P,SW1,2,2_2*%
%TO.N,Net-(U1-D0)*%
X110690000Y-135460000D03*
%TD*%
%TO.P,SW4,1,1_1*%
%TO.N,GND*%
X175540000Y-132920000D03*
%TO.P,SW4,2,2_2*%
%TO.N,Net-(U1-D3)*%
X169190000Y-135460000D03*
%TD*%
%TO.P,SW3,1,1_1*%
%TO.N,GND*%
X156040000Y-132920000D03*
%TO.P,SW3,2,2_2*%
%TO.N,Net-(U1-D2)*%
X149690000Y-135460000D03*
%TD*%
%TO.P,SW2,1,1_1*%
%TO.N,GND*%
X136540000Y-132920000D03*
%TO.P,SW2,2,2_2*%
%TO.N,Net-(U1-D1)*%
X130190000Y-135460000D03*
%TD*%
D11*
%TO.P,J1,1,Pin_1_1*%
%TO.N,GND*%
X124000000Y-123000000D03*
D12*
%TO.P,J1,2,Pin_2_2*%
%TO.N,+3V3*%
X121460000Y-123000000D03*
%TO.P,J1,3,Pin_3_3*%
%TO.N,/SCL*%
X118920000Y-123000000D03*
%TO.P,J1,4,Pin_4_4*%
%TO.N,/SDA*%
X116380000Y-123000000D03*
%TO.P,J1,5,Pin_5_5*%
%TO.N,/RST*%
X113840000Y-123000000D03*
%TO.P,J1,6,Pin_6_6*%
%TO.N,/DC*%
X111300000Y-123000000D03*
%TO.P,J1,7,Pin_7_7*%
%TO.N,/CS*%
X108760000Y-123000000D03*
%TO.P,J1,8,Pin_8_8*%
%TO.N,/BL*%
X106220000Y-123000000D03*
%TD*%
D13*
%TO.P,BZ1,1,+_1*%
%TO.N,Net-(BZ1-+)*%
X177500000Y-118000000D03*
D14*
%TO.P,BZ1,2,-_2*%
%TO.N,GND*%
X177500000Y-125600000D03*
%TD*%
D15*
%TO.P,U1,1,D0_1*%
%TO.N,Net-(U1-D0)*%
X151665000Y-108420000D03*
D16*
X152500000Y-108420000D03*
D15*
%TO.P,U1,2,D1_2*%
%TO.N,Net-(U1-D1)*%
X151665000Y-110960000D03*
D16*
X152500000Y-110960000D03*
D15*
%TO.P,U1,3,D2_3*%
%TO.N,Net-(U1-D2)*%
X151665000Y-113500000D03*
D16*
X152500000Y-113500000D03*
D15*
%TO.P,U1,4,D3_4*%
%TO.N,Net-(U1-D3)*%
X151665000Y-116040000D03*
D16*
X152500000Y-116040000D03*
D15*
%TO.P,U1,5,D4_5*%
%TO.N,/DC*%
X151665000Y-118580000D03*
D16*
X152500000Y-118580000D03*
D15*
%TO.P,U1,6,D5_6*%
%TO.N,/CS*%
X151665000Y-121120000D03*
D16*
X152500000Y-121120000D03*
D15*
%TO.P,U1,7,D6_7*%
%TO.N,/BL*%
X151665000Y-123660000D03*
D16*
X152500000Y-123660000D03*
D17*
%TO.P,U1,8,D7_8*%
%TO.N,Net-(BZ1-+)*%
X135590000Y-123660000D03*
D15*
X136425000Y-123660000D03*
D17*
%TO.P,U1,9,D8_9*%
%TO.N,/RST*%
X135590000Y-121120000D03*
D15*
X136425000Y-121120000D03*
D17*
%TO.P,U1,10,D9/BOOT_10*%
%TO.N,/SCL*%
X135590000Y-118580000D03*
D15*
X136425000Y-118580000D03*
D17*
%TO.P,U1,11,D10_11*%
%TO.N,/SDA*%
X135590000Y-116040000D03*
D15*
X136425000Y-116040000D03*
D17*
%TO.P,U1,12,3V3_OUT_12*%
%TO.N,+3V3*%
X135590000Y-113500000D03*
D15*
X136425000Y-113500000D03*
D17*
%TO.P,U1,13,GND_13*%
%TO.N,GND*%
X135590000Y-110960000D03*
D15*
X136425000Y-110960000D03*
D17*
%TO.P,U1,14,VBUS_14*%
%TO.N,unconnected-(U1-VBUS-Pad14)_1*%
X135590000Y-108420000D03*
D15*
%TO.N,unconnected-(U1-VBUS-Pad14)*%
X136425000Y-108420000D03*
%TD*%
D18*
%TO.N,+3V3*%
X127000000Y-114000000D03*
%TD*%
%TO.N,GND*%
D19*
X136425000Y-110960000D02*
X135347370Y-110960000D01*
X136540000Y-132920000D02*
X126620000Y-123000000D01*
X136540000Y-132920000D02*
X117040000Y-132920000D01*
X126620000Y-123000000D02*
X124000000Y-123000000D01*
X175540000Y-132920000D02*
X156040000Y-132920000D01*
X177500000Y-125600000D02*
X175540000Y-127560000D01*
X135347370Y-110960000D02*
X124000000Y-122307370D01*
X156040000Y-132920000D02*
X136540000Y-132920000D01*
X175540000Y-127560000D02*
X175540000Y-132920000D01*
X124000000Y-122307370D02*
X124000000Y-123000000D01*
%TO.N,+3V3*%
X127000000Y-114000000D02*
X127000000Y-117460000D01*
X127000000Y-117460000D02*
X121460000Y-123000000D01*
%TO.N,Net-(BZ1-+)*%
X173318000Y-122182000D02*
X177500000Y-118000000D01*
X136425000Y-123660000D02*
X137903000Y-122182000D01*
X137903000Y-122182000D02*
X173318000Y-122182000D01*
%TD*%
M02*
