%TF.GenerationSoftware,KiCad,Pcbnew,10.0.6*%
%TF.CreationDate,2026-09-29T16:42:07-07:00*%
%TF.ProjectId,keyclock,6b657963-6c6f-4636-9b2e-6b696361645f,rev?*%
%TF.SameCoordinates,Original*%
%TF.FileFunction,Legend,Top*%
%TF.FilePolarity,Positive*%
%FSLAX46Y46*%
G04 Gerber Fmt 4.6, Leading zero omitted, Abs format (unit mm)*
G04 Created by KiCad (PCBNEW 10.0.6) date 2026-09-29 16:42:07*
%MOMM*%
%LPD*%
G01*
G04 APERTURE LIST*
%ADD10C,0.628000*%
%ADD11C,0.262800*%
%ADD12C,0.150000*%
%ADD13C,0.120000*%
%ADD14C,1.700000*%
%ADD15C,4.000000*%
%ADD16C,2.200000*%
%ADD17C,3.200000*%
%ADD18R,1.700000X1.700000*%
%ADD19R,2.000000X2.000000*%
%ADD20C,2.000000*%
%ADD21C,1.524000*%
G04 APERTURE END LIST*
D10*
G36*
X158768681Y-110369692D02*
G01*
X158434686Y-110640224D01*
X158434686Y-111227687D01*
X158442524Y-111285814D01*
X158463254Y-111324511D01*
X158500257Y-111353055D01*
X158571965Y-111381838D01*
X158571965Y-111466200D01*
X157710136Y-111466200D01*
X157710136Y-111381646D01*
X157779983Y-111356019D01*
X157817697Y-111327387D01*
X157839326Y-111287753D01*
X157847415Y-111229412D01*
X157847415Y-109285647D01*
X157839482Y-109227552D01*
X157818656Y-109189782D01*
X157781925Y-109161949D01*
X157710136Y-109133221D01*
X157710136Y-109048860D01*
X158571965Y-109048860D01*
X158571965Y-109133221D01*
X158500279Y-109160268D01*
X158463254Y-109188248D01*
X158442525Y-109226575D01*
X158434686Y-109284305D01*
X158434686Y-110043750D01*
X159327768Y-109346617D01*
X159406793Y-109267762D01*
X159426317Y-109213556D01*
X159415989Y-109182948D01*
X159380273Y-109156176D01*
X159301884Y-109133796D01*
X159301884Y-109048860D01*
X160395132Y-109048860D01*
X160395132Y-109133796D01*
X160315014Y-109153606D01*
X160255744Y-109182496D01*
X159985212Y-109402986D01*
X159179560Y-110036848D01*
X160067656Y-111047076D01*
X160228929Y-111223673D01*
X160311921Y-111301311D01*
X160390912Y-111350044D01*
X160485245Y-111381455D01*
X160485245Y-111466200D01*
X159421907Y-111466200D01*
X159421907Y-111381646D01*
X159517361Y-111342950D01*
X159539822Y-111302270D01*
X159526401Y-111264115D01*
X159427659Y-111148502D01*
X158768681Y-110369692D01*
G37*
G36*
X161459429Y-110435456D02*
G01*
X161459429Y-111024452D01*
X162978319Y-111024452D01*
X163037576Y-111016821D01*
X163076485Y-110996843D01*
X163104945Y-110960585D01*
X163132470Y-110889474D01*
X163203219Y-110889474D01*
X163203219Y-111601178D01*
X163132279Y-111601178D01*
X163106563Y-111532641D01*
X163077444Y-111495343D01*
X163037445Y-111474160D01*
X162978319Y-111466200D01*
X160734879Y-111466200D01*
X160734879Y-111381646D01*
X160804726Y-111356019D01*
X160842440Y-111327387D01*
X160864068Y-111287753D01*
X160872158Y-111229412D01*
X160872158Y-109285647D01*
X160864225Y-109227552D01*
X160843398Y-109189782D01*
X160806668Y-109161949D01*
X160734879Y-109133221D01*
X160734879Y-109048860D01*
X162911788Y-109048860D01*
X162972677Y-109041026D01*
X163011872Y-109020675D01*
X163040546Y-108984206D01*
X163068049Y-108913881D01*
X163136688Y-108913881D01*
X163136688Y-109625585D01*
X163068049Y-109625585D01*
X163040512Y-109554510D01*
X163012064Y-109518408D01*
X162972882Y-109498351D01*
X162911788Y-109490607D01*
X161459429Y-109490607D01*
X161459429Y-110005979D01*
X162358454Y-110005979D01*
X162417488Y-109998212D01*
X162456428Y-109977795D01*
X162485540Y-109941241D01*
X162514714Y-109871001D01*
X162583354Y-109871001D01*
X162583354Y-110570434D01*
X162514714Y-110570434D01*
X162487299Y-110501005D01*
X162458537Y-110464215D01*
X162419287Y-110443432D01*
X162358454Y-110435456D01*
X161459429Y-110435456D01*
G37*
G36*
X165004528Y-110400752D02*
G01*
X165004528Y-111226728D01*
X165012371Y-111285222D01*
X165033096Y-111324127D01*
X165070118Y-111352857D01*
X165141807Y-111381838D01*
X165141807Y-111466200D01*
X164280170Y-111466200D01*
X164280170Y-111381838D01*
X164351780Y-111354538D01*
X164388689Y-111326236D01*
X164409478Y-111287194D01*
X164417449Y-111226728D01*
X164417449Y-110400752D01*
X163706512Y-109436539D01*
X163589855Y-109289447D01*
X163515932Y-109214898D01*
X163438480Y-109165471D01*
X163342799Y-109133605D01*
X163342799Y-109048860D01*
X164436047Y-109048860D01*
X164436047Y-109133413D01*
X164351689Y-109167295D01*
X164309788Y-109208256D01*
X164296659Y-109257463D01*
X164313776Y-109310449D01*
X164396359Y-109439798D01*
X164741090Y-109909347D01*
X165077002Y-109439798D01*
X165159622Y-109308626D01*
X165176702Y-109255354D01*
X165163984Y-109208383D01*
X165122915Y-109168113D01*
X165039615Y-109133413D01*
X165037122Y-109048860D01*
X166079178Y-109048860D01*
X166079178Y-109133605D01*
X165983497Y-109165471D01*
X165906046Y-109214898D01*
X165832123Y-109289447D01*
X165715465Y-109436539D01*
X165004528Y-110400752D01*
G37*
G36*
X168520868Y-110587306D02*
G01*
X168890525Y-111130287D01*
X168832814Y-111172276D01*
X168781314Y-111142262D01*
X168751328Y-111134889D01*
X168706896Y-111147832D01*
X168584906Y-111212732D01*
X168294886Y-111362804D01*
X168064357Y-111449327D01*
X167828831Y-111497817D01*
X167543617Y-111515283D01*
X167248612Y-111495800D01*
X166993837Y-111440498D01*
X166773100Y-111352606D01*
X166581321Y-111233247D01*
X166450283Y-111116748D01*
X166338496Y-110982326D01*
X166245025Y-110828312D01*
X166170975Y-110648992D01*
X166126336Y-110459560D01*
X166111198Y-110257530D01*
X166126982Y-110048774D01*
X166173224Y-109856110D01*
X166249455Y-109676640D01*
X166356804Y-109508055D01*
X166492568Y-109356771D01*
X166648868Y-109232807D01*
X166827928Y-109134520D01*
X167033072Y-109061765D01*
X167268555Y-109015912D01*
X167539399Y-108999777D01*
X167824910Y-109017675D01*
X168063399Y-109067649D01*
X168296254Y-109156571D01*
X168585098Y-109310572D01*
X168706996Y-109377100D01*
X168751328Y-109390332D01*
X168781273Y-109382728D01*
X168833006Y-109351602D01*
X168890333Y-109397426D01*
X168521060Y-109932738D01*
X168466033Y-109892283D01*
X168470826Y-109855470D01*
X168472744Y-109828628D01*
X168452361Y-109771796D01*
X168372283Y-109696575D01*
X168186682Y-109593375D01*
X168001273Y-109521793D01*
X167818279Y-109479882D01*
X167635840Y-109466066D01*
X167442842Y-109479910D01*
X167274392Y-109519465D01*
X167126563Y-109582918D01*
X166996226Y-109670067D01*
X166868681Y-109794933D01*
X166780359Y-109932333D01*
X166727257Y-110085039D01*
X166709014Y-110257530D01*
X166727299Y-110431138D01*
X166780471Y-110584533D01*
X166868804Y-110722250D01*
X166996226Y-110847101D01*
X167127590Y-110933446D01*
X167275859Y-110996249D01*
X167444027Y-111035337D01*
X167635840Y-111048994D01*
X167834577Y-111032662D01*
X168035228Y-110982899D01*
X168240174Y-110897335D01*
X168390596Y-110806498D01*
X168456015Y-110741162D01*
X168472744Y-110692566D01*
X168465841Y-110629870D01*
X168520868Y-110587306D01*
G37*
G36*
X169852629Y-111024452D02*
G01*
X171191292Y-111024452D01*
X171252087Y-111016727D01*
X171290417Y-110996843D01*
X171318553Y-110960744D01*
X171347553Y-110889474D01*
X171416192Y-110889474D01*
X171416192Y-111601178D01*
X171347553Y-111601178D01*
X171320050Y-111530854D01*
X171291376Y-111494384D01*
X171252181Y-111474033D01*
X171191292Y-111466200D01*
X169128079Y-111466200D01*
X169128079Y-111381646D01*
X169197926Y-111356019D01*
X169235640Y-111327387D01*
X169257269Y-111287753D01*
X169265358Y-111229412D01*
X169265358Y-109285647D01*
X169257425Y-109227552D01*
X169236599Y-109189782D01*
X169199868Y-109161949D01*
X169128079Y-109133221D01*
X169128079Y-109048860D01*
X169989908Y-109048860D01*
X169989908Y-109133221D01*
X169918282Y-109160708D01*
X169881197Y-109189206D01*
X169860484Y-109228159D01*
X169852629Y-109286989D01*
X169852629Y-111024452D01*
G37*
G36*
X173293331Y-109019570D02*
G01*
X173544965Y-109076276D01*
X173767571Y-109167399D01*
X173965443Y-109292549D01*
X174130704Y-109444805D01*
X174257390Y-109616109D01*
X174348665Y-109808982D01*
X174405141Y-110027475D01*
X174424830Y-110276894D01*
X174405652Y-110509049D01*
X174350196Y-110715697D01*
X174259681Y-110901427D01*
X174132764Y-111069681D01*
X173965635Y-111222510D01*
X173769739Y-111347528D01*
X173548550Y-111438651D01*
X173297652Y-111495435D01*
X173011583Y-111515283D01*
X172725514Y-111495435D01*
X172474616Y-111438651D01*
X172253427Y-111347528D01*
X172057531Y-111222510D01*
X171890526Y-111069868D01*
X171763164Y-110900020D01*
X171671904Y-110710704D01*
X171615730Y-110498188D01*
X171596228Y-110257530D01*
X172194044Y-110257530D01*
X172208115Y-110420211D01*
X172248802Y-110564528D01*
X172315332Y-110693911D01*
X172408974Y-110810864D01*
X172532178Y-110914068D01*
X172671382Y-110987771D01*
X172829730Y-111033172D01*
X173011583Y-111048994D01*
X173192303Y-111033206D01*
X173349965Y-110987861D01*
X173488861Y-110914167D01*
X173612083Y-110810864D01*
X173706066Y-110694847D01*
X173772554Y-110567469D01*
X173813052Y-110426366D01*
X173827013Y-110268266D01*
X173812545Y-110095190D01*
X173771240Y-109945830D01*
X173704639Y-109815910D01*
X173612083Y-109702278D01*
X173488257Y-109601583D01*
X173348714Y-109528941D01*
X173190475Y-109483366D01*
X173009474Y-109466066D01*
X172828523Y-109481742D01*
X172670787Y-109526741D01*
X172531972Y-109599800D01*
X172408974Y-109702086D01*
X172315430Y-109819018D01*
X172248891Y-109948713D01*
X172208149Y-110093720D01*
X172194044Y-110257530D01*
X171596228Y-110257530D01*
X171615884Y-110013933D01*
X171672345Y-109800162D01*
X171763801Y-109611007D01*
X171891108Y-109442533D01*
X172057723Y-109292358D01*
X172254209Y-109169746D01*
X172475100Y-109079494D01*
X172724481Y-109022054D01*
X173007365Y-108999777D01*
X173293331Y-109019570D01*
G37*
G36*
X177138010Y-110587306D02*
G01*
X177507666Y-111130287D01*
X177449956Y-111172276D01*
X177398456Y-111142262D01*
X177368470Y-111134889D01*
X177324038Y-111147832D01*
X177202048Y-111212732D01*
X176912028Y-111362804D01*
X176681499Y-111449327D01*
X176445973Y-111497817D01*
X176160759Y-111515283D01*
X175865753Y-111495800D01*
X175610979Y-111440498D01*
X175390242Y-111352606D01*
X175198463Y-111233247D01*
X175067424Y-111116748D01*
X174955638Y-110982326D01*
X174862167Y-110828312D01*
X174788117Y-110648992D01*
X174743478Y-110459560D01*
X174728339Y-110257530D01*
X174744123Y-110048774D01*
X174790366Y-109856110D01*
X174866597Y-109676640D01*
X174973946Y-109508055D01*
X175109710Y-109356771D01*
X175266010Y-109232807D01*
X175445070Y-109134520D01*
X175650214Y-109061765D01*
X175885697Y-109015912D01*
X176156541Y-108999777D01*
X176442052Y-109017675D01*
X176680540Y-109067649D01*
X176913395Y-109156571D01*
X177202240Y-109310572D01*
X177324137Y-109377100D01*
X177368470Y-109390332D01*
X177398415Y-109382728D01*
X177450147Y-109351602D01*
X177507475Y-109397426D01*
X177138202Y-109932738D01*
X177083175Y-109892283D01*
X177087968Y-109855470D01*
X177089885Y-109828628D01*
X177069502Y-109771796D01*
X176989425Y-109696575D01*
X176803823Y-109593375D01*
X176618414Y-109521793D01*
X176435420Y-109479882D01*
X176252981Y-109466066D01*
X176059983Y-109479910D01*
X175891533Y-109519465D01*
X175743704Y-109582918D01*
X175613368Y-109670067D01*
X175485822Y-109794933D01*
X175397501Y-109932333D01*
X175344399Y-110085039D01*
X175326155Y-110257530D01*
X175344440Y-110431138D01*
X175397612Y-110584533D01*
X175485946Y-110722250D01*
X175613368Y-110847101D01*
X175744732Y-110933446D01*
X175893000Y-110996249D01*
X176061169Y-111035337D01*
X176252981Y-111048994D01*
X176451718Y-111032662D01*
X176652370Y-110982899D01*
X176857316Y-110897335D01*
X177007738Y-110806498D01*
X177073157Y-110741162D01*
X177089885Y-110692566D01*
X177082983Y-110629870D01*
X177138010Y-110587306D01*
G37*
G36*
X178858984Y-110369692D02*
G01*
X178524989Y-110640224D01*
X178524989Y-111227687D01*
X178532827Y-111285814D01*
X178553557Y-111324511D01*
X178590560Y-111353055D01*
X178662268Y-111381838D01*
X178662268Y-111466200D01*
X177800439Y-111466200D01*
X177800439Y-111381646D01*
X177870286Y-111356019D01*
X177908000Y-111327387D01*
X177929629Y-111287753D01*
X177937718Y-111229412D01*
X177937718Y-109285647D01*
X177929785Y-109227552D01*
X177908959Y-109189782D01*
X177872228Y-109161949D01*
X177800439Y-109133221D01*
X177800439Y-109048860D01*
X178662268Y-109048860D01*
X178662268Y-109133221D01*
X178590581Y-109160268D01*
X178553557Y-109188248D01*
X178532828Y-109226575D01*
X178524989Y-109284305D01*
X178524989Y-110043750D01*
X179418071Y-109346617D01*
X179497096Y-109267762D01*
X179516620Y-109213556D01*
X179506291Y-109182948D01*
X179470576Y-109156176D01*
X179392187Y-109133796D01*
X179392187Y-109048860D01*
X180485435Y-109048860D01*
X180485435Y-109133796D01*
X180405317Y-109153606D01*
X180346047Y-109182496D01*
X180075515Y-109402986D01*
X179269863Y-110036848D01*
X180157959Y-111047076D01*
X180319232Y-111223673D01*
X180402224Y-111301311D01*
X180481215Y-111350044D01*
X180575548Y-111381455D01*
X180575548Y-111466200D01*
X179512210Y-111466200D01*
X179512210Y-111381646D01*
X179607664Y-111342950D01*
X179630125Y-111302270D01*
X179616703Y-111264115D01*
X179517962Y-111148502D01*
X178858984Y-110369692D01*
G37*
D11*
G36*
X158190906Y-114112158D02*
G01*
X158009017Y-114259486D01*
X158009017Y-114579410D01*
X158013285Y-114611065D01*
X158024575Y-114632139D01*
X158044726Y-114647683D01*
X158083777Y-114663358D01*
X158083777Y-114709301D01*
X157614437Y-114709301D01*
X157614437Y-114663254D01*
X157652475Y-114649298D01*
X157673013Y-114633705D01*
X157684792Y-114612121D01*
X157689197Y-114580349D01*
X157689197Y-113521802D01*
X157684877Y-113490165D01*
X157673535Y-113469595D01*
X157653532Y-113454438D01*
X157614437Y-113438793D01*
X157614437Y-113392851D01*
X158083777Y-113392851D01*
X158083777Y-113438793D01*
X158044737Y-113453523D01*
X158024575Y-113468760D01*
X158013286Y-113489632D01*
X158009017Y-113521071D01*
X158009017Y-113934654D01*
X158495376Y-113555006D01*
X158538413Y-113512062D01*
X158549045Y-113482543D01*
X158543420Y-113465874D01*
X158523970Y-113451294D01*
X158481281Y-113439106D01*
X158481281Y-113392851D01*
X159076648Y-113392851D01*
X159076648Y-113439106D01*
X159033017Y-113449894D01*
X159000739Y-113465628D01*
X158853411Y-113585703D01*
X158414665Y-113930895D01*
X158898309Y-114481052D01*
X158986136Y-114577224D01*
X159031333Y-114619505D01*
X159074350Y-114646044D01*
X159125723Y-114663150D01*
X159125723Y-114709301D01*
X158546644Y-114709301D01*
X158546644Y-114663254D01*
X158598626Y-114642180D01*
X158610858Y-114620027D01*
X158603549Y-114599248D01*
X158549776Y-114536287D01*
X158190906Y-114112158D01*
G37*
G36*
X160278740Y-113402945D02*
G01*
X160403282Y-113429536D01*
X160493022Y-113468342D01*
X160559992Y-113521638D01*
X160611114Y-113594265D01*
X160642731Y-113679657D01*
X160653610Y-113777094D01*
X160644380Y-113872214D01*
X160618480Y-113949970D01*
X160577075Y-114013966D01*
X160519229Y-114066529D01*
X160451348Y-114104528D01*
X160363572Y-114134260D01*
X160251354Y-114154047D01*
X160109405Y-114161337D01*
X159647896Y-114161337D01*
X159647896Y-114577948D01*
X159652177Y-114610186D01*
X159663454Y-114631512D01*
X159683635Y-114647360D01*
X159722656Y-114663358D01*
X159722656Y-114709301D01*
X159253316Y-114709301D01*
X159253316Y-114663254D01*
X159291354Y-114649298D01*
X159311892Y-114633705D01*
X159323671Y-114612121D01*
X159328077Y-114580349D01*
X159328077Y-113920767D01*
X159647896Y-113920767D01*
X160090715Y-113920767D01*
X160203095Y-113913718D01*
X160259866Y-113897901D01*
X160297247Y-113870555D01*
X160319830Y-113831647D01*
X160328048Y-113777094D01*
X160319830Y-113722541D01*
X160297247Y-113683633D01*
X160259866Y-113656287D01*
X160203958Y-113640517D01*
X160090715Y-113633421D01*
X159647896Y-113633421D01*
X159647896Y-113920767D01*
X159328077Y-113920767D01*
X159328077Y-113521802D01*
X159323756Y-113490165D01*
X159312415Y-113469595D01*
X159292412Y-113454438D01*
X159253316Y-113438793D01*
X159253316Y-113392851D01*
X160109405Y-113392851D01*
X160278740Y-113402945D01*
G37*
G36*
X161708764Y-113376900D02*
G01*
X161845800Y-113407782D01*
X161967028Y-113457406D01*
X162074786Y-113525561D01*
X162164785Y-113608477D01*
X162233777Y-113701767D01*
X162283484Y-113806803D01*
X162314240Y-113925792D01*
X162324962Y-114061622D01*
X162314518Y-114188050D01*
X162284317Y-114300587D01*
X162235025Y-114401733D01*
X162165907Y-114493362D01*
X162074891Y-114576591D01*
X161968209Y-114644674D01*
X161847752Y-114694298D01*
X161711117Y-114725222D01*
X161555328Y-114736030D01*
X161399539Y-114725222D01*
X161262903Y-114694298D01*
X161142447Y-114644674D01*
X161035765Y-114576591D01*
X160944816Y-114493464D01*
X160875456Y-114400967D01*
X160825757Y-114297868D01*
X160795166Y-114182135D01*
X160784545Y-114051076D01*
X161110107Y-114051076D01*
X161117770Y-114139670D01*
X161139928Y-114218263D01*
X161176159Y-114288723D01*
X161227155Y-114352414D01*
X161294251Y-114408617D01*
X161370059Y-114448755D01*
X161456293Y-114473480D01*
X161555328Y-114482096D01*
X161653746Y-114473498D01*
X161739606Y-114448804D01*
X161815247Y-114408671D01*
X161882352Y-114352414D01*
X161933533Y-114289233D01*
X161969742Y-114219864D01*
X161991796Y-114143022D01*
X161999400Y-114056923D01*
X161991521Y-113962668D01*
X161969026Y-113881329D01*
X161932756Y-113810576D01*
X161882352Y-113748693D01*
X161814918Y-113693856D01*
X161738925Y-113654297D01*
X161652750Y-113629477D01*
X161554179Y-113620056D01*
X161455636Y-113628593D01*
X161369735Y-113653099D01*
X161294138Y-113692886D01*
X161227155Y-113748589D01*
X161176212Y-113812269D01*
X161139976Y-113882898D01*
X161117789Y-113961867D01*
X161110107Y-114051076D01*
X160784545Y-114051076D01*
X160795250Y-113918416D01*
X160825998Y-113802000D01*
X160875803Y-113698989D01*
X160945133Y-113607240D01*
X161035869Y-113525457D01*
X161142873Y-113458684D01*
X161263167Y-113409534D01*
X161398976Y-113378253D01*
X161553031Y-113366121D01*
X161708764Y-113376900D01*
G37*
G36*
X163414468Y-113376900D02*
G01*
X163551504Y-113407782D01*
X163672732Y-113457406D01*
X163780491Y-113525561D01*
X163870489Y-113608477D01*
X163939481Y-113701767D01*
X163989188Y-113806803D01*
X164019944Y-113925792D01*
X164030666Y-114061622D01*
X164020222Y-114188050D01*
X163990022Y-114300587D01*
X163940729Y-114401733D01*
X163871611Y-114493362D01*
X163780595Y-114576591D01*
X163673913Y-114644674D01*
X163553456Y-114694298D01*
X163416821Y-114725222D01*
X163261032Y-114736030D01*
X163105243Y-114725222D01*
X162968607Y-114694298D01*
X162848151Y-114644674D01*
X162741469Y-114576591D01*
X162650520Y-114493464D01*
X162581160Y-114400967D01*
X162531462Y-114297868D01*
X162500870Y-114182135D01*
X162490249Y-114051076D01*
X162815811Y-114051076D01*
X162823474Y-114139670D01*
X162845632Y-114218263D01*
X162881863Y-114288723D01*
X162932859Y-114352414D01*
X162999955Y-114408617D01*
X163075763Y-114448755D01*
X163161997Y-114473480D01*
X163261032Y-114482096D01*
X163359450Y-114473498D01*
X163445310Y-114448804D01*
X163520951Y-114408671D01*
X163588056Y-114352414D01*
X163639237Y-114289233D01*
X163675446Y-114219864D01*
X163697501Y-114143022D01*
X163705104Y-114056923D01*
X163697225Y-113962668D01*
X163674730Y-113881329D01*
X163638461Y-113810576D01*
X163588056Y-113748693D01*
X163520622Y-113693856D01*
X163444629Y-113654297D01*
X163358454Y-113629477D01*
X163259883Y-113620056D01*
X163161340Y-113628593D01*
X163075439Y-113653099D01*
X162999842Y-113692886D01*
X162932859Y-113748589D01*
X162881917Y-113812269D01*
X162845680Y-113882898D01*
X162823493Y-113961867D01*
X162815811Y-114051076D01*
X162490249Y-114051076D01*
X162500954Y-113918416D01*
X162531702Y-113802000D01*
X162581507Y-113698989D01*
X162650837Y-113607240D01*
X162741573Y-113525457D01*
X162848577Y-113458684D01*
X162968871Y-113409534D01*
X163104680Y-113378253D01*
X163258735Y-113366121D01*
X163414468Y-113376900D01*
G37*
G36*
X164859503Y-114285067D02*
G01*
X165173058Y-113602201D01*
X165195316Y-113546959D01*
X165200832Y-113515955D01*
X165193272Y-113484410D01*
X165169979Y-113459065D01*
X165124923Y-113438793D01*
X165124923Y-113392851D01*
X165637386Y-113392851D01*
X165637386Y-113438689D01*
X165593558Y-113457037D01*
X165568473Y-113475651D01*
X165548067Y-113503559D01*
X165515535Y-113564716D01*
X165057680Y-114517283D01*
X165038349Y-114565015D01*
X165033456Y-114593088D01*
X165041154Y-114623876D01*
X165064639Y-114646913D01*
X165110514Y-114663150D01*
X165110514Y-114709301D01*
X164591055Y-114709301D01*
X164591055Y-114663150D01*
X164636147Y-114646973D01*
X164659335Y-114623958D01*
X164666964Y-114593088D01*
X164662071Y-114565015D01*
X164642740Y-114517283D01*
X164184885Y-113564716D01*
X164152390Y-113502623D01*
X164132470Y-113475129D01*
X164107807Y-113457009D01*
X164063034Y-113438689D01*
X164063034Y-113392851D01*
X164594187Y-113392851D01*
X164594187Y-113438793D01*
X164549772Y-113459626D01*
X164526836Y-113484976D01*
X164519427Y-113515955D01*
X164524894Y-113544387D01*
X164548350Y-113602305D01*
X164859503Y-114285067D01*
G37*
G36*
X166572307Y-113438584D02*
G01*
X166534533Y-113460001D01*
X166514521Y-113485031D01*
X166507988Y-113514911D01*
X166514256Y-113553471D01*
X166536807Y-113606899D01*
X167032146Y-114534825D01*
X167072174Y-114602410D01*
X167095525Y-114631721D01*
X167122849Y-114649501D01*
X167167988Y-114663150D01*
X167167988Y-114709301D01*
X166627542Y-114709301D01*
X166627542Y-114663045D01*
X166672615Y-114648204D01*
X166695780Y-114625847D01*
X166703451Y-114594967D01*
X166697237Y-114558504D01*
X166674633Y-114507051D01*
X166603214Y-114375176D01*
X166005653Y-114375176D01*
X165938829Y-114515613D01*
X165919616Y-114564218D01*
X165914605Y-114594654D01*
X165922065Y-114624551D01*
X165944858Y-114647072D01*
X165989365Y-114663150D01*
X165989365Y-114709301D01*
X165501439Y-114709301D01*
X165501439Y-114663045D01*
X165543586Y-114651976D01*
X165568682Y-114636733D01*
X165589060Y-114611939D01*
X165618591Y-114560406D01*
X165804476Y-114188067D01*
X166098895Y-114188067D01*
X166504960Y-114188067D01*
X166296864Y-113792443D01*
X166098895Y-114188067D01*
X165804476Y-114188067D01*
X166096285Y-113603558D01*
X166116868Y-113550946D01*
X166122806Y-113510212D01*
X166116551Y-113484128D01*
X166096593Y-113460585D01*
X166057443Y-113438584D01*
X166057443Y-113392851D01*
X166572307Y-113392851D01*
X166572307Y-113438584D01*
G37*
G36*
X167760223Y-114112158D02*
G01*
X167578334Y-114259486D01*
X167578334Y-114579410D01*
X167582603Y-114611065D01*
X167593892Y-114632139D01*
X167614043Y-114647683D01*
X167653095Y-114663358D01*
X167653095Y-114709301D01*
X167183755Y-114709301D01*
X167183755Y-114663254D01*
X167221792Y-114649298D01*
X167242331Y-114633705D01*
X167254109Y-114612121D01*
X167258515Y-114580349D01*
X167258515Y-113521802D01*
X167254195Y-113490165D01*
X167242853Y-113469595D01*
X167222850Y-113454438D01*
X167183755Y-113438793D01*
X167183755Y-113392851D01*
X167653095Y-113392851D01*
X167653095Y-113438793D01*
X167614055Y-113453523D01*
X167593892Y-113468760D01*
X167582603Y-113489632D01*
X167578334Y-113521071D01*
X167578334Y-113934654D01*
X168064694Y-113555006D01*
X168107730Y-113512062D01*
X168118363Y-113482543D01*
X168112738Y-113465874D01*
X168093288Y-113451294D01*
X168050598Y-113439106D01*
X168050598Y-113392851D01*
X168645966Y-113392851D01*
X168645966Y-113439106D01*
X168602335Y-113449894D01*
X168570057Y-113465628D01*
X168422729Y-113585703D01*
X167983982Y-113930895D01*
X168467627Y-114481052D01*
X168555454Y-114577224D01*
X168600650Y-114619505D01*
X168643667Y-114646044D01*
X168695040Y-114663150D01*
X168695040Y-114709301D01*
X168115961Y-114709301D01*
X168115961Y-114663254D01*
X168167944Y-114642180D01*
X168180176Y-114620027D01*
X168172867Y-114599248D01*
X168119094Y-114536287D01*
X167760223Y-114112158D01*
G37*
G36*
X169819995Y-113438584D02*
G01*
X169782220Y-113460001D01*
X169762208Y-113485031D01*
X169755676Y-113514911D01*
X169761943Y-113553471D01*
X169784494Y-113606899D01*
X170279833Y-114534825D01*
X170319862Y-114602410D01*
X170343212Y-114631721D01*
X170370536Y-114649501D01*
X170415675Y-114663150D01*
X170415675Y-114709301D01*
X169875230Y-114709301D01*
X169875230Y-114663045D01*
X169920302Y-114648204D01*
X169943467Y-114625847D01*
X169951138Y-114594967D01*
X169944924Y-114558504D01*
X169922320Y-114507051D01*
X169850901Y-114375176D01*
X169253341Y-114375176D01*
X169186516Y-114515613D01*
X169167303Y-114564218D01*
X169162292Y-114594654D01*
X169169753Y-114624551D01*
X169192545Y-114647072D01*
X169237052Y-114663150D01*
X169237052Y-114709301D01*
X168749127Y-114709301D01*
X168749127Y-114663045D01*
X168791273Y-114651976D01*
X168816369Y-114636733D01*
X168836748Y-114611939D01*
X168866279Y-114560406D01*
X169052164Y-114188067D01*
X169346582Y-114188067D01*
X169752648Y-114188067D01*
X169544551Y-113792443D01*
X169346582Y-114188067D01*
X169052164Y-114188067D01*
X169343972Y-113603558D01*
X169364555Y-113550946D01*
X169370493Y-113510212D01*
X169364238Y-113484128D01*
X169344281Y-113460585D01*
X169305130Y-113438584D01*
X169305130Y-113392851D01*
X169819995Y-113392851D01*
X169819995Y-113438584D01*
G37*
G36*
X170919890Y-113853316D02*
G01*
X170919890Y-114579305D01*
X170924295Y-114611077D01*
X170936074Y-114632661D01*
X170956588Y-114648485D01*
X170994650Y-114663358D01*
X170994650Y-114709301D01*
X170553397Y-114709301D01*
X170553397Y-114663254D01*
X170591435Y-114649298D01*
X170611973Y-114633705D01*
X170623752Y-114612121D01*
X170628158Y-114580349D01*
X170628158Y-113521802D01*
X170623837Y-113490165D01*
X170612495Y-113469595D01*
X170592492Y-113454438D01*
X170553397Y-113438793D01*
X170553397Y-113392851D01*
X171062415Y-113392851D01*
X171062415Y-113438898D01*
X171021742Y-113457747D01*
X171011043Y-113481290D01*
X171018571Y-113507307D01*
X171047379Y-113543625D01*
X171742566Y-114226909D01*
X171742566Y-113521802D01*
X171738265Y-113490082D01*
X171726904Y-113469073D01*
X171706804Y-113453661D01*
X171667806Y-113438793D01*
X171667806Y-113392851D01*
X172109059Y-113392851D01*
X172109059Y-113438793D01*
X172070029Y-113453631D01*
X172049856Y-113468969D01*
X172038574Y-113489967D01*
X172034298Y-113521698D01*
X172034298Y-114579305D01*
X172038567Y-114610961D01*
X172049856Y-114632034D01*
X172070005Y-114647600D01*
X172109059Y-114663358D01*
X172109059Y-114709301D01*
X171633976Y-114709301D01*
X171633976Y-114663150D01*
X171674677Y-114646269D01*
X171685347Y-114623472D01*
X171671774Y-114591939D01*
X171608081Y-114525010D01*
X170919890Y-113853316D01*
G37*
D12*
X113166667Y-130533200D02*
X113309524Y-130580819D01*
X113309524Y-130580819D02*
X113547619Y-130580819D01*
X113547619Y-130580819D02*
X113642857Y-130533200D01*
X113642857Y-130533200D02*
X113690476Y-130485580D01*
X113690476Y-130485580D02*
X113738095Y-130390342D01*
X113738095Y-130390342D02*
X113738095Y-130295104D01*
X113738095Y-130295104D02*
X113690476Y-130199866D01*
X113690476Y-130199866D02*
X113642857Y-130152247D01*
X113642857Y-130152247D02*
X113547619Y-130104628D01*
X113547619Y-130104628D02*
X113357143Y-130057009D01*
X113357143Y-130057009D02*
X113261905Y-130009390D01*
X113261905Y-130009390D02*
X113214286Y-129961771D01*
X113214286Y-129961771D02*
X113166667Y-129866533D01*
X113166667Y-129866533D02*
X113166667Y-129771295D01*
X113166667Y-129771295D02*
X113214286Y-129676057D01*
X113214286Y-129676057D02*
X113261905Y-129628438D01*
X113261905Y-129628438D02*
X113357143Y-129580819D01*
X113357143Y-129580819D02*
X113595238Y-129580819D01*
X113595238Y-129580819D02*
X113738095Y-129628438D01*
X114071429Y-129580819D02*
X114309524Y-130580819D01*
X114309524Y-130580819D02*
X114500000Y-129866533D01*
X114500000Y-129866533D02*
X114690476Y-130580819D01*
X114690476Y-130580819D02*
X114928572Y-129580819D01*
X115833333Y-130580819D02*
X115261905Y-130580819D01*
X115547619Y-130580819D02*
X115547619Y-129580819D01*
X115547619Y-129580819D02*
X115452381Y-129723676D01*
X115452381Y-129723676D02*
X115357143Y-129818914D01*
X115357143Y-129818914D02*
X115261905Y-129866533D01*
X185238095Y-106304819D02*
X185238095Y-105304819D01*
X185238095Y-105781009D02*
X185809523Y-105781009D01*
X185809523Y-106304819D02*
X185809523Y-105304819D01*
X186238095Y-105400057D02*
X186285714Y-105352438D01*
X186285714Y-105352438D02*
X186380952Y-105304819D01*
X186380952Y-105304819D02*
X186619047Y-105304819D01*
X186619047Y-105304819D02*
X186714285Y-105352438D01*
X186714285Y-105352438D02*
X186761904Y-105400057D01*
X186761904Y-105400057D02*
X186809523Y-105495295D01*
X186809523Y-105495295D02*
X186809523Y-105590533D01*
X186809523Y-105590533D02*
X186761904Y-105733390D01*
X186761904Y-105733390D02*
X186190476Y-106304819D01*
X186190476Y-106304819D02*
X186809523Y-106304819D01*
X171666667Y-130533200D02*
X171809524Y-130580819D01*
X171809524Y-130580819D02*
X172047619Y-130580819D01*
X172047619Y-130580819D02*
X172142857Y-130533200D01*
X172142857Y-130533200D02*
X172190476Y-130485580D01*
X172190476Y-130485580D02*
X172238095Y-130390342D01*
X172238095Y-130390342D02*
X172238095Y-130295104D01*
X172238095Y-130295104D02*
X172190476Y-130199866D01*
X172190476Y-130199866D02*
X172142857Y-130152247D01*
X172142857Y-130152247D02*
X172047619Y-130104628D01*
X172047619Y-130104628D02*
X171857143Y-130057009D01*
X171857143Y-130057009D02*
X171761905Y-130009390D01*
X171761905Y-130009390D02*
X171714286Y-129961771D01*
X171714286Y-129961771D02*
X171666667Y-129866533D01*
X171666667Y-129866533D02*
X171666667Y-129771295D01*
X171666667Y-129771295D02*
X171714286Y-129676057D01*
X171714286Y-129676057D02*
X171761905Y-129628438D01*
X171761905Y-129628438D02*
X171857143Y-129580819D01*
X171857143Y-129580819D02*
X172095238Y-129580819D01*
X172095238Y-129580819D02*
X172238095Y-129628438D01*
X172571429Y-129580819D02*
X172809524Y-130580819D01*
X172809524Y-130580819D02*
X173000000Y-129866533D01*
X173000000Y-129866533D02*
X173190476Y-130580819D01*
X173190476Y-130580819D02*
X173428572Y-129580819D01*
X174238095Y-129914152D02*
X174238095Y-130580819D01*
X174000000Y-129533200D02*
X173761905Y-130247485D01*
X173761905Y-130247485D02*
X174380952Y-130247485D01*
X152166667Y-130533200D02*
X152309524Y-130580819D01*
X152309524Y-130580819D02*
X152547619Y-130580819D01*
X152547619Y-130580819D02*
X152642857Y-130533200D01*
X152642857Y-130533200D02*
X152690476Y-130485580D01*
X152690476Y-130485580D02*
X152738095Y-130390342D01*
X152738095Y-130390342D02*
X152738095Y-130295104D01*
X152738095Y-130295104D02*
X152690476Y-130199866D01*
X152690476Y-130199866D02*
X152642857Y-130152247D01*
X152642857Y-130152247D02*
X152547619Y-130104628D01*
X152547619Y-130104628D02*
X152357143Y-130057009D01*
X152357143Y-130057009D02*
X152261905Y-130009390D01*
X152261905Y-130009390D02*
X152214286Y-129961771D01*
X152214286Y-129961771D02*
X152166667Y-129866533D01*
X152166667Y-129866533D02*
X152166667Y-129771295D01*
X152166667Y-129771295D02*
X152214286Y-129676057D01*
X152214286Y-129676057D02*
X152261905Y-129628438D01*
X152261905Y-129628438D02*
X152357143Y-129580819D01*
X152357143Y-129580819D02*
X152595238Y-129580819D01*
X152595238Y-129580819D02*
X152738095Y-129628438D01*
X153071429Y-129580819D02*
X153309524Y-130580819D01*
X153309524Y-130580819D02*
X153500000Y-129866533D01*
X153500000Y-129866533D02*
X153690476Y-130580819D01*
X153690476Y-130580819D02*
X153928572Y-129580819D01*
X154214286Y-129580819D02*
X154833333Y-129580819D01*
X154833333Y-129580819D02*
X154500000Y-129961771D01*
X154500000Y-129961771D02*
X154642857Y-129961771D01*
X154642857Y-129961771D02*
X154738095Y-130009390D01*
X154738095Y-130009390D02*
X154785714Y-130057009D01*
X154785714Y-130057009D02*
X154833333Y-130152247D01*
X154833333Y-130152247D02*
X154833333Y-130390342D01*
X154833333Y-130390342D02*
X154785714Y-130485580D01*
X154785714Y-130485580D02*
X154738095Y-130533200D01*
X154738095Y-130533200D02*
X154642857Y-130580819D01*
X154642857Y-130580819D02*
X154357143Y-130580819D01*
X154357143Y-130580819D02*
X154261905Y-130533200D01*
X154261905Y-130533200D02*
X154214286Y-130485580D01*
X132666667Y-130533200D02*
X132809524Y-130580819D01*
X132809524Y-130580819D02*
X133047619Y-130580819D01*
X133047619Y-130580819D02*
X133142857Y-130533200D01*
X133142857Y-130533200D02*
X133190476Y-130485580D01*
X133190476Y-130485580D02*
X133238095Y-130390342D01*
X133238095Y-130390342D02*
X133238095Y-130295104D01*
X133238095Y-130295104D02*
X133190476Y-130199866D01*
X133190476Y-130199866D02*
X133142857Y-130152247D01*
X133142857Y-130152247D02*
X133047619Y-130104628D01*
X133047619Y-130104628D02*
X132857143Y-130057009D01*
X132857143Y-130057009D02*
X132761905Y-130009390D01*
X132761905Y-130009390D02*
X132714286Y-129961771D01*
X132714286Y-129961771D02*
X132666667Y-129866533D01*
X132666667Y-129866533D02*
X132666667Y-129771295D01*
X132666667Y-129771295D02*
X132714286Y-129676057D01*
X132714286Y-129676057D02*
X132761905Y-129628438D01*
X132761905Y-129628438D02*
X132857143Y-129580819D01*
X132857143Y-129580819D02*
X133095238Y-129580819D01*
X133095238Y-129580819D02*
X133238095Y-129628438D01*
X133571429Y-129580819D02*
X133809524Y-130580819D01*
X133809524Y-130580819D02*
X134000000Y-129866533D01*
X134000000Y-129866533D02*
X134190476Y-130580819D01*
X134190476Y-130580819D02*
X134428572Y-129580819D01*
X134761905Y-129676057D02*
X134809524Y-129628438D01*
X134809524Y-129628438D02*
X134904762Y-129580819D01*
X134904762Y-129580819D02*
X135142857Y-129580819D01*
X135142857Y-129580819D02*
X135238095Y-129628438D01*
X135238095Y-129628438D02*
X135285714Y-129676057D01*
X135285714Y-129676057D02*
X135333333Y-129771295D01*
X135333333Y-129771295D02*
X135333333Y-129866533D01*
X135333333Y-129866533D02*
X135285714Y-130009390D01*
X135285714Y-130009390D02*
X134714286Y-130580819D01*
X134714286Y-130580819D02*
X135333333Y-130580819D01*
X101238095Y-106304819D02*
X101238095Y-105304819D01*
X101238095Y-105781009D02*
X101809523Y-105781009D01*
X101809523Y-106304819D02*
X101809523Y-105304819D01*
X102809523Y-106304819D02*
X102238095Y-106304819D01*
X102523809Y-106304819D02*
X102523809Y-105304819D01*
X102523809Y-105304819D02*
X102428571Y-105447676D01*
X102428571Y-105447676D02*
X102333333Y-105542914D01*
X102333333Y-105542914D02*
X102238095Y-105590533D01*
X184738095Y-145804819D02*
X184738095Y-144804819D01*
X184738095Y-145281009D02*
X185309523Y-145281009D01*
X185309523Y-145804819D02*
X185309523Y-144804819D01*
X186214285Y-145138152D02*
X186214285Y-145804819D01*
X185976190Y-144757200D02*
X185738095Y-145471485D01*
X185738095Y-145471485D02*
X186357142Y-145471485D01*
X101238095Y-145804819D02*
X101238095Y-144804819D01*
X101238095Y-145281009D02*
X101809523Y-145281009D01*
X101809523Y-145804819D02*
X101809523Y-144804819D01*
X102190476Y-144804819D02*
X102809523Y-144804819D01*
X102809523Y-144804819D02*
X102476190Y-145185771D01*
X102476190Y-145185771D02*
X102619047Y-145185771D01*
X102619047Y-145185771D02*
X102714285Y-145233390D01*
X102714285Y-145233390D02*
X102761904Y-145281009D01*
X102761904Y-145281009D02*
X102809523Y-145376247D01*
X102809523Y-145376247D02*
X102809523Y-145614342D01*
X102809523Y-145614342D02*
X102761904Y-145709580D01*
X102761904Y-145709580D02*
X102714285Y-145757200D01*
X102714285Y-145757200D02*
X102619047Y-145804819D01*
X102619047Y-145804819D02*
X102333333Y-145804819D01*
X102333333Y-145804819D02*
X102238095Y-145757200D01*
X102238095Y-145757200D02*
X102190476Y-145709580D01*
%TO.C,SW1*%
D13*
X107515000Y-131015000D02*
X121485000Y-131015000D01*
X107515000Y-144985000D02*
X107515000Y-131015000D01*
X121485000Y-131015000D02*
X121485000Y-144985000D01*
X121485000Y-144985000D02*
X107515000Y-144985000D01*
%TO.C,SW4*%
X166015000Y-131015000D02*
X179985000Y-131015000D01*
X166015000Y-144985000D02*
X166015000Y-131015000D01*
X179985000Y-131015000D02*
X179985000Y-144985000D01*
X179985000Y-144985000D02*
X166015000Y-144985000D01*
%TO.C,SW3*%
X146515000Y-131015000D02*
X160485000Y-131015000D01*
X146515000Y-144985000D02*
X146515000Y-131015000D01*
X160485000Y-131015000D02*
X160485000Y-144985000D01*
X160485000Y-144985000D02*
X146515000Y-144985000D01*
%TO.C,SW2*%
X127015000Y-131015000D02*
X140985000Y-131015000D01*
X127015000Y-144985000D02*
X127015000Y-131015000D01*
X140985000Y-131015000D02*
X140985000Y-144985000D01*
X140985000Y-144985000D02*
X127015000Y-144985000D01*
%TD*%
%LPC*%
D14*
%TO.C,SW1*%
X109420000Y-138000000D03*
D15*
X114500000Y-138000000D03*
D14*
X119580000Y-138000000D03*
D16*
X117040000Y-132920000D03*
X110690000Y-135460000D03*
%TD*%
D17*
%TO.C,H2*%
X186000000Y-110000000D03*
%TD*%
D14*
%TO.C,SW4*%
X167920000Y-138000000D03*
D15*
X173000000Y-138000000D03*
D14*
X178080000Y-138000000D03*
D16*
X175540000Y-132920000D03*
X169190000Y-135460000D03*
%TD*%
D14*
%TO.C,SW3*%
X148420000Y-138000000D03*
D15*
X153500000Y-138000000D03*
D14*
X158580000Y-138000000D03*
D16*
X156040000Y-132920000D03*
X149690000Y-135460000D03*
%TD*%
D14*
%TO.C,SW2*%
X128920000Y-138000000D03*
D15*
X134000000Y-138000000D03*
D14*
X139080000Y-138000000D03*
D16*
X136540000Y-132920000D03*
X130190000Y-135460000D03*
%TD*%
D17*
%TO.C,H1*%
X102000000Y-110000000D03*
%TD*%
%TO.C,H4*%
X185500000Y-149500000D03*
%TD*%
%TO.C,H3*%
X102000000Y-149500000D03*
%TD*%
D18*
%TO.C,J1*%
X124000000Y-123000000D03*
D14*
X121460000Y-123000000D03*
X118920000Y-123000000D03*
X116380000Y-123000000D03*
X113840000Y-123000000D03*
X111300000Y-123000000D03*
X108760000Y-123000000D03*
X106220000Y-123000000D03*
%TD*%
D19*
%TO.C,BZ1*%
X177500000Y-118000000D03*
D20*
X177500000Y-125600000D03*
%TD*%
D21*
%TO.C,U1*%
X151665000Y-108420000D03*
X151665000Y-110960000D03*
X151665000Y-113500000D03*
X151665000Y-116040000D03*
X151665000Y-118580000D03*
X151665000Y-121120000D03*
X151665000Y-123660000D03*
X136425000Y-123660000D03*
X136425000Y-121120000D03*
X136425000Y-118580000D03*
X136425000Y-116040000D03*
X136425000Y-113500000D03*
X136425000Y-110960000D03*
X136425000Y-108420000D03*
%TD*%
%LPD*%
M02*
