M48
; DRILL file KiCad 10.0.6 date 2026-09-29T16:43:13
; FORMAT={-:-/ absolute / metric / decimal}
; #@! TF.CreationDate,2026-09-29T16:43:13-07:00
; #@! TF.GenerationSoftware,Kicad,Pcbnew,10.0.6
; #@! TF.FileFunction,Plated,1,2,PTH
FMAT,2
METRIC
; #@! TA.AperFunction,Plated,PTH,ViaDrill
T1C0.300
; #@! TA.AperFunction,Plated,PTH,ComponentDrill
T2C0.889
; #@! TA.AperFunction,Plated,PTH,ComponentDrill
T3C1.000
; #@! TA.AperFunction,Plated,PTH,ComponentDrill
T4C1.500
%
G90
G05
T1
X127.0Y-114.0
T2
X136.425Y-108.42
X136.425Y-110.96
X136.425Y-113.5
X136.425Y-116.04
X136.425Y-118.58
X136.425Y-121.12
X136.425Y-123.66
X151.665Y-108.42
X151.665Y-110.96
X151.665Y-113.5
X151.665Y-116.04
X151.665Y-118.58
X151.665Y-121.12
X151.665Y-123.66
T3
X106.22Y-123.0
X108.76Y-123.0
X111.3Y-123.0
X113.84Y-123.0
X116.38Y-123.0
X118.92Y-123.0
X121.46Y-123.0
X124.0Y-123.0
X177.5Y-118.0
X177.5Y-125.6
T4
X110.69Y-135.46
X117.04Y-132.92
X130.19Y-135.46
X136.54Y-132.92
X149.69Y-135.46
X156.04Y-132.92
X169.19Y-135.46
X175.54Y-132.92
M30
